<svg xmlns="http://www.w3.org/2000/svg"  viewBox="0 0 50 50" width="16px" height="16px"><path d="M 18 0 C 13.570313 0 10 3.570313 10 8 C 10 12.429688 13.570313 16 18 16 C 20.964844 16 23.523438 14.386719 24.90625 12 L 37 12 C 37.265625 12.007813 37.527344 11.90625 37.71875 11.71875 L 39.71875 9.71875 C 39.90625 9.527344 40.007813 9.265625 40 9 L 40 7 C 40.007813 6.734375 39.90625 6.472656 39.71875 6.28125 L 37.71875 4.28125 C 37.527344 4.09375 37.265625 3.992188 37 4 L 35 4 C 34.734375 3.992188 34.472656 4.09375 34.28125 4.28125 L 33.5 5.0625 L 32.71875 4.28125 C 32.527344 4.09375 32.265625 3.992188 32 4 L 30 4 C 29.800781 3.996094 29.605469 4.050781 29.4375 4.15625 L 28.5 4.78125 L 27.5625 4.15625 C 27.394531 4.050781 27.199219 3.996094 27 4 L 24.90625 4 C 23.523438 1.613281 20.964844 0 18 0 Z M 18 2 C 21.371094 2 24 4.628906 24 8 C 24 11.371094 21.371094 14 18 14 C 14.628906 14 12 11.371094 12 8 C 12 4.628906 14.628906 2 18 2 Z M 16 6 C 14.894531 6 14 6.894531 14 8 C 14 9.105469 14.894531 10 16 10 C 17.105469 10 18 9.105469 18 8 C 18 6.894531 17.105469 6 16 6 Z M 25.75 6 L 26.6875 6 L 27.9375 6.84375 C 28.277344 7.074219 28.722656 7.074219 29.0625 6.84375 L 30.3125 6 L 31.5625 6 L 32.78125 7.21875 C 32.96875 7.414063 33.230469 7.523438 33.5 7.523438 C 33.769531 7.523438 34.03125 7.414063 34.21875 7.21875 L 35.4375 6 L 36.5625 6 L 38 7.4375 L 38 8.5625 L 36.5625 10 L 25.75 10 C 25.914063 9.359375 26 8.691406 26 8 C 26 7.308594 25.914063 6.640625 25.75 6 Z M 7 18 C 5.355469 18 4 19.355469 4 21 L 4 47 C 4 48.644531 5.355469 50 7 50 L 43 50 C 44.644531 50 46 48.644531 46 47 L 46 21 C 46 19.355469 44.644531 18 43 18 Z M 7 20 L 43 20 C 43.554688 20 44 20.445313 44 21 L 44 47 C 44 47.554688 43.554688 48 43 48 L 7 48 C 6.445313 48 6 47.554688 6 47 L 6 21 C 6 20.445313 6.445313 20 7 20 Z M 23 21 C 22.476563 21 21.941406 21.183594 21.5625 21.5625 C 21.183594 21.941406 21 22.476563 21 23 L 21 24 L 13 24 C 11.355469 24 10 25.355469 10 27 L 10 43 C 10 44.644531 11.355469 46 13 46 L 37 46 C 38.644531 46 40 44.644531 40 43 L 40 27 C 40 25.355469 38.644531 24 37 24 L 29 24 L 29 23 C 29 22.476563 28.816406 21.941406 28.4375 21.5625 C 28.058594 21.183594 27.523438 21 27 21 Z M 23 23 L 27 23 L 27 24 L 23 24 Z M 13 26 L 16 26 L 16 44 L 13 44 C 12.445313 44 12 43.554688 12 43 L 12 27 C 12 26.445313 12.445313 26 13 26 Z M 18 26 L 32 26 L 32 44 L 18 44 Z M 34 26 L 37 26 C 37.554688 26 38 26.445313 38 27 L 38 43 C 38 43.554688 37.554688 44 37 44 L 34 44 Z"/></svg>