<svg xmlns="http://www.w3.org/2000/svg"  viewBox="0 0 32 32" width="16px" height="16px"><path d="M 8 3 C 6.355469 3 5 4.355469 5 6 L 7 6 C 7 5.433594 7.433594 5 8 5 C 8.566406 5 9 5.433594 9 6 C 9 6.566406 8.566406 7 8 7 L 7 7 L 7 10 L 9 10 L 9 8.59375 C 10.109375 8.152344 11 7.257813 11 6 C 11 4.355469 9.644531 3 8 3 Z M 27.53125 5.03125 L 25.625 6.9375 L 5.5625 17.0625 L 5 17.34375 L 5 18.9375 L 5.9375 19 C 5.9375 19 7.699219 19.164063 8.6875 20.125 C 9.34375 20.761719 9.703125 21.886719 9.875 22.5625 L 6.71875 25.71875 C 6.320313 26.117188 5.679688 26.117188 5.28125 25.71875 C 4.882813 25.320313 4.882813 24.679688 5.28125 24.28125 L 5.3125 24.28125 L 5.34375 24.25 L 6 23.5 L 4.5 22.1875 L 3.875 22.875 C 3.855469 22.894531 3.859375 22.917969 3.84375 22.9375 C 2.734375 24.105469 2.730469 25.980469 3.875 27.125 C 5.039063 28.289063 6.960938 28.289063 8.125 27.125 L 11.25 24 L 11.28125 24 C 11.738281 24.042969 12.75 24.25 13.59375 25.09375 C 14.714844 26.214844 15 28.125 15 28.125 L 15.125 29 L 16.71875 29 L 17 28.4375 L 27.09375 8.3125 L 28.96875 6.46875 Z M 24 10 L 16.15625 25.625 C 15.859375 24.96875 15.617188 24.273438 15 23.65625 C 13.800781 22.457031 12.605469 22.21875 11.8125 22.125 C 11.667969 21.328125 11.332031 19.914063 10.0625 18.6875 C 9.554688 18.195313 9.015625 18.0625 8.46875 17.8125 Z M 7 11 L 7 13 L 9 13 L 9 11 Z"/></svg>