<svg xmlns="http://www.w3.org/2000/svg"  viewBox="0 0 50 50" width="16px" height="16px"><path d="M 25 2 C 12.309295 2 2 12.309295 2 25 C 2 37.690705 12.309295 48 25 48 C 37.690705 48 48 37.690705 48 25 C 48 12.309295 37.690705 2 25 2 z M 25 4 C 36.609824 4 46 13.390176 46 25 C 46 36.609824 36.609824 46 25 46 C 13.390176 46 4 36.609824 4 25 C 4 13.390176 13.390176 4 25 4 z M 25 7.953125 C 22.777305 7.953125 20.953125 9.7773049 20.953125 12 C 20.953125 14.050386 22.510609 15.743093 24.496094 15.996094 C 24.238545 16.138865 23.999952 16.307528 23.794922 16.501953 C 23.525868 16.757091 23.298566 17.047321 23.115234 17.363281 A 1.0001 1.0001 0 0 0 22.878906 17.556641 C 22.983703 17.441689 22.581912 17.780558 22.136719 18.056641 C 21.691525 18.332723 21.127461 18.65846 20.578125 18.96875 C 19.62708 19.505944 18.953008 19.863306 18.726562 19.984375 C 18.271739 19.913075 15.494331 19.478654 14.570312 19.341797 C 14.087513 19.270607 13.557178 19.311497 13.027344 19.570312 C 12.49751 19.829124 11.986592 20.394773 11.853516 21.117188 A 1.0001 1.0001 0 0 0 11.853516 21.119141 C 11.731754 21.784454 11.939875 22.512077 12.367188 22.955078 C 12.794496 23.398079 13.32055 23.587642 13.828125 23.693359 C 14.381704 23.808666 15.557445 24.024422 16.695312 24.222656 C 17.833181 24.420891 18.805566 24.591668 19.296875 24.632812 C 19.625782 24.660512 19.781204 24.608977 19.996094 24.560547 C 20.210983 24.512127 20.442574 24.446604 20.695312 24.369141 C 21.200792 24.214214 21.783321 24.011439 22.34375 23.806641 C 22.911857 23.599037 23.034572 23.544217 23.433594 23.388672 C 23.778639 24.930316 24.115125 26.436416 24.212891 26.873047 C 23.948237 27.155704 23.405797 27.734282 22.558594 28.658203 C 22.042628 29.220892 21.513161 29.8024 21.085938 30.287109 C 20.658714 30.771818 20.395841 31.038083 20.160156 31.421875 C 20.037655 31.621113 20.008088 31.72245 19.935547 31.900391 C 19.863007 32.078331 19.779141 32.293201 19.6875 32.539062 C 19.504219 33.030786 19.286725 33.642816 19.068359 34.261719 C 18.631627 35.499524 18.168119 36.828019 18.068359 37.078125 C 17.857322 37.607775 17.674941 38.218897 17.707031 38.904297 C 17.739121 39.589697 18.111661 40.41816 18.861328 40.833984 C 19.619068 41.254951 20.552712 41.282789 21.251953 40.914062 C 21.951194 40.545335 22.410283 39.921755 22.757812 39.212891 C 22.890989 38.942339 22.985444 38.664359 23.164062 38.189453 C 23.342682 37.714547 23.560458 37.124868 23.777344 36.541016 C 23.99423 35.957163 24.211564 35.377289 24.384766 34.929688 C 24.471366 34.705886 24.546555 34.51513 24.603516 34.378906 C 24.660476 34.242683 24.748077 34.099872 24.660156 34.236328 C 24.555888 34.398157 24.696096 34.196598 24.832031 34.042969 C 24.96797 33.889341 25.157688 33.679516 25.380859 33.435547 C 25.660153 33.130225 26.036153 32.724434 26.388672 32.34375 C 26.774904 34.213204 27.416194 37.335524 27.669922 38.435547 C 27.887751 39.378452 28.330769 40.173317 29.044922 40.658203 C 29.759075 41.14309 30.72573 41.203567 31.544922 40.853516 C 32.056947 40.634769 32.459153 40.197166 32.646484 39.75 C 32.833816 39.302834 32.855973 38.872318 32.837891 38.482422 C 32.801731 37.70263 32.589627 36.989089 32.541016 36.671875 C 32.278809 34.965958 30.661507 26.064134 30.632812 25.90625 C 30.632021 25.675391 30.617039 25.437861 30.568359 25.189453 C 30.498319 24.830801 30.254773 23.670596 30.082031 22.822266 L 30.460938 23.083984 C 30.620942 23.547033 31.850285 27.102697 32.083984 27.804688 C 32.273566 28.375308 32.669271 28.782809 33.097656 29.033203 C 33.526041 29.283597 33.998574 29.422702 34.548828 29.308594 C 34.981529 29.219524 35.474211 28.997684 35.826172 28.541016 C 36.178529 28.083834 36.308085 27.448941 36.222656 26.8125 A 1.0001 1.0001 0 0 0 36.197266 26.685547 L 34.695312 21.136719 A 1.0001 1.0001 0 0 0 34.681641 21.091797 C 34.492897 20.504426 34.085454 19.943263 33.529297 19.625 L 33.642578 19.699219 L 29.324219 16.384766 A 1.0001 1.0001 0 0 0 29.203125 16.304688 C 28.858589 16.112284 28.221649 15.642578 27.220703 15.642578 L 26.724609 15.642578 C 28.089745 14.989798 29.046875 13.604696 29.046875 12 C 29.046875 9.7773049 27.222695 7.953125 25 7.953125 z M 25 10.046875 C 26.091013 10.046875 26.953125 10.908987 26.953125 12 C 26.953125 13.091013 26.091013 13.953125 25 13.953125 C 23.908987 13.953125 23.046875 13.091013 23.046875 12 C 23.046875 10.908987 23.908987 10.046875 25 10.046875 z M 25.779297 17.642578 L 27.220703 17.642578 C 27.715961 17.642578 27.676969 17.740568 28.193359 18.037109 L 32.423828 21.285156 A 1.0001 1.0001 0 0 0 32.537109 21.359375 C 32.672953 21.437115 32.69809 21.456495 32.777344 21.703125 L 34.240234 27.107422 C 34.255304 27.282366 34.230887 27.334976 34.242188 27.320312 C 34.248582 27.312018 34.206281 27.327301 34.193359 27.333984 C 34.178615 27.331264 34.141732 27.326676 34.107422 27.306641 C 34.038802 27.266531 33.994841 27.211211 33.982422 27.173828 C 33.707302 26.347419 32.246094 22.123047 32.246094 22.123047 A 1.0001 1.0001 0 0 0 31.871094 21.628906 L 29.169922 19.755859 A 1.0001 1.0001 0 0 0 27.623047 20.789062 C 28.03976 22.72345 28.466149 24.858872 28.605469 25.572266 A 1.0001 1.0001 0 0 0 28.605469 25.574219 C 28.768237 26.404804 28.373492 27.013875 27.888672 27.746094 C 27.968022 27.626437 27.838242 27.805534 27.699219 27.962891 C 27.560194 28.120248 27.367745 28.333683 27.142578 28.580078 C 26.91911 28.824613 26.61263 29.153982 26.339844 29.449219 A 1.0001 1.0001 0 0 0 26.140625 29.666016 C 25.926067 29.897926 25.747149 30.092758 25.525391 30.332031 C 24.942252 30.961228 24.360251 31.589625 23.90625 32.085938 C 23.679249 32.334092 23.483495 32.547831 23.333984 32.716797 C 23.184474 32.885762 23.138034 32.906718 22.978516 33.154297 C 22.835345 33.376503 22.828934 33.442005 22.759766 33.607422 C 22.690596 33.772839 22.609696 33.975973 22.519531 34.208984 C 22.339201 34.675008 22.120083 35.259556 21.902344 35.845703 C 21.684605 36.431851 21.468132 37.018656 21.292969 37.484375 C 21.117806 37.950094 20.940714 38.37513 20.962891 38.330078 A 1.0001 1.0001 0 0 0 20.962891 38.332031 C 20.73142 38.804167 20.465369 39.068963 20.318359 39.146484 C 20.17135 39.224004 20.136292 39.254974 19.832031 39.085938 C 19.694698 39.009757 19.715488 39.032898 19.705078 38.810547 C 19.694668 38.588197 19.779768 38.18971 19.927734 37.818359 C 20.109975 37.361466 20.52156 36.154476 20.955078 34.925781 C 21.171837 34.311434 21.387375 33.708121 21.5625 33.238281 C 21.65006 33.003361 21.7276 32.80027 21.787109 32.654297 C 21.846619 32.508323 21.919535 32.379215 21.863281 32.470703 A 1.0001 1.0001 0 0 0 21.863281 32.46875 C 21.810601 32.55454 22.17624 32.076416 22.587891 31.609375 C 22.999542 31.142334 23.520216 30.567077 24.03125 30.009766 C 25.053319 28.895143 26.03125 27.851563 26.03125 27.851562 A 1.0001 1.0001 0 0 0 26.279297 26.949219 C 26.279297 26.949219 24.851611 20.573111 24.730469 20.019531 L 24.730469 20.017578 C 24.59967 19.415705 24.53243 19.312185 24.675781 18.763672 C 24.743361 18.505264 24.939132 18.173829 25.171875 17.953125 C 25.404618 17.732421 25.642919 17.642578 25.779297 17.642578 z M 22.697266 20.046875 C 22.722159 20.185309 22.748537 20.319656 22.775391 20.443359 A 1.0001 1.0001 0 0 0 22.775391 20.445312 C 22.794342 20.531925 22.934089 21.155327 22.992188 21.416016 C 22.60511 21.568397 22.349849 21.674986 21.658203 21.927734 C 21.116507 22.125686 20.555177 22.320395 20.109375 22.457031 C 19.886474 22.525351 19.691943 22.578885 19.556641 22.609375 C 19.49063 22.62425 19.429817 22.628522 19.402344 22.630859 C 19.234962 22.612645 18.135224 22.442922 17.039062 22.251953 C 15.913932 22.055938 14.719749 21.837021 14.236328 21.736328 C 13.970903 21.681048 13.821831 21.582155 13.806641 21.566406 C 13.791781 21.550996 13.791173 21.636159 13.820312 21.480469 L 13.820312 21.478516 C 13.840283 21.369443 13.82941 21.404705 13.90625 21.367188 C 13.98392 21.329248 14.170144 21.304513 14.277344 21.320312 C 15.236189 21.462328 18.755859 22.013672 18.755859 22.013672 A 1.0001 1.0001 0 0 0 19.378906 21.908203 C 19.378906 21.908203 20.436672 21.346857 21.5625 20.710938 C 21.954456 20.489542 22.326257 20.267902 22.697266 20.046875 z M 29.207031 29.275391 C 29.720745 32.128057 30.405847 35.944665 30.564453 36.976562 C 30.652923 37.552707 30.820032 38.147018 30.839844 38.574219 C 30.849744 38.788073 30.818701 38.935744 30.800781 38.978516 C 30.782861 39.021286 30.828246 38.984412 30.759766 39.013672 C 30.443957 39.148621 30.334565 39.117054 30.167969 39.003906 C 30.001372 38.890793 29.757312 38.58247 29.619141 37.984375 C 29.338564 36.767951 28.206394 31.275605 28.054688 30.541016 C 28.238913 30.341319 28.460136 30.103682 28.619141 29.929688 C 28.84827 29.678957 29.044654 29.459845 29.197266 29.287109 C 29.201388 29.282443 29.203035 29.27988 29.207031 29.275391 z"/></svg>