<svg xmlns="http://www.w3.org/2000/svg" xmlns:xlink="http://www.w3.org/1999/xlink" width="500" zoomAndPan="magnify" viewBox="0 0 375 374.999991" height="500" preserveAspectRatio="xMidYMid meet" version="1.0"><defs><g/></defs><path fill="#198754" d="M 260.792969 238.660156 L 234.894531 259.960938 L 197.757812 214.824219 L 223.65625 193.519531 L 260.792969 238.660156 " fill-opacity="1" fill-rule="nonzero"/><path fill="#198754" d="M 132.730469 210.199219 C 83.273438 205.390625 47.070312 161.386719 51.882812 111.925781 C 56.699219 62.464844 100.695312 26.269531 150.152344 31.085938 C 199.613281 35.898438 235.8125 79.890625 231 129.355469 C 226.1875 178.816406 182.191406 215.007812 132.730469 210.199219 Z M 152.582031 6.144531 C 89.34375 -0.0117188 33.097656 46.269531 26.941406 109.5 C 20.789062 172.738281 67.066406 228.988281 130.308594 235.140625 C 193.542969 241.296875 249.792969 195.019531 255.945312 131.78125 C 262.09375 68.539062 215.816406 12.292969 152.582031 6.144531 " fill-opacity="1" fill-rule="nonzero"/><path fill="#198754" d="M 219.117188 260.757812 L 299.171875 358.0625 C 309.359375 370.441406 327.65625 372.230469 340.039062 362.042969 C 352.425781 351.851562 354.203125 333.550781 344.015625 321.171875 L 263.960938 223.867188 L 219.117188 260.757812 " fill-opacity="1" fill-rule="nonzero"/><path fill="#198754" d="M 222.363281 132.386719 C 221.289062 133.277344 219.871094 133.746094 218.375 133.601562 C 215.375 133.3125 213.183594 130.648438 213.472656 127.648438 C 217.335938 87.933594 188.167969 52.476562 148.453125 48.609375 C 130.597656 46.878906 112.832031 51.792969 98.429688 62.449219 C 96.007812 64.238281 92.59375 63.722656 90.804688 61.304688 C 89.011719 58.878906 89.5 55.4375 91.941406 53.671875 C 108.515625 41.414062 128.960938 35.761719 149.503906 37.757812 C 195.207031 42.207031 228.773438 83.003906 224.328125 128.707031 C 224.179688 130.199219 223.4375 131.5 222.363281 132.386719 " fill-opacity="1" fill-rule="nonzero"/><g fill="#198754" fill-opacity="1"><g transform="translate(286.145141, 307.7725)"><g><path d="M 7.828125 0 L 4.984375 -4.34375 L 2.125 0 L 0.21875 0 L 3.984375 -5.4375 L 0.40625 -10.5625 L 2.34375 -10.5625 L 4.984375 -6.453125 L 7.59375 -10.5625 L 9.5625 -10.5625 L 5.984375 -5.453125 L 9.78125 0 Z M 7.828125 0 "/></g></g></g></svg>